<?xml version="1.0" encoding="iso-8859-1"?>
<!-- Generator: Adobe Illustrator 19.0.0, SVG Export Plug-In . SVG Version: 6.00 Build 0)  -->
<svg version="1.1" id="Capa_1" xmlns="http://www.w3.org/2000/svg" xmlns:xlink="http://www.w3.org/1999/xlink" x="0px" y="0px"
	 viewBox="0 0 511.918 511.918" style="enable-background:new 0 0 511.918 511.918;" xml:space="preserve">
<polygon style="fill:#D7E9FF;" points="467.923,395.937 467.923,403.936 475.922,427.932 459.924,451.928 443.927,427.932 
	451.926,403.936 451.926,395.937 "/>
<polygon style="fill:#FFFFFF;" points="459.924,435.93 447.481,417.27 443.927,427.932 459.924,451.928 475.922,427.932 
	472.367,417.27 "/>
<polygon style="fill:#5C9EFF;" points="475.922,347.944 475.922,395.937 467.923,395.937 451.926,395.937 443.927,395.937 
	443.927,347.944 "/>
<rect x="443.93" y="331.95" style="fill:#94C1FF;" width="31.995" height="15.997"/>
<path style="fill:#5C9EFF;" d="M483.921,131.979l-7.999,199.968h-31.995l-7.999-199.968c0-17.677,6.32-31.995,23.996-31.995h0.797
	C477.766,100.461,483.921,114.544,483.921,131.979z"/>
<path style="fill:#94C1FF;" d="M451.926,331.947l-7.999-199.968c0-16.216,5.437-29.464,19.966-31.565
	c-1.047-0.156-2.023-0.398-3.172-0.43h-0.797c-17.676,0-23.996,14.318-23.996,31.995l7.999,199.968v15.997v47.992h7.999v-47.992
	V331.947z"/>
<path style="fill:#2287FF;" d="M467.868,331.947l7.999-199.968c0-16.216-5.437-29.464-19.966-31.565
	c1.047-0.156,2.023-0.398,3.172-0.43h0.797c17.677,0,23.996,14.318,23.996,31.995l-7.999,199.968v15.997v47.992h-7.999v-47.992
	V331.947z"/>
<rect x="451.93" y="395.94" style="fill:#94C1FF;" width="15.997" height="7.999"/>
<rect x="27.999" y="35.989" style="fill:#FFFFFF;" width="359.94" height="439.93"/>
<g>
	<path style="fill:#D7E9FF;" d="M127.978,171.973c0,13.256-10.741,23.996-23.997,23.996c-13.255,0-23.996-10.74-23.996-23.996
		s10.741-23.996,23.996-23.996C117.237,147.977,127.978,158.717,127.978,171.973z"/>
	<path style="fill:#D7E9FF;" d="M127.978,275.956c0,13.255-10.741,23.996-23.997,23.996c-13.255,0-23.996-10.741-23.996-23.996
		c0-13.256,10.741-23.996,23.996-23.996C117.237,251.96,127.978,262.7,127.978,275.956z"/>
	<path style="fill:#D7E9FF;" d="M127.978,379.939c0,13.256-10.741,23.996-23.997,23.996c-13.255,0-23.996-10.74-23.996-23.996
		s10.741-23.996,23.996-23.996C117.237,355.943,127.978,366.684,127.978,379.939z"/>
	<rect x="27.999" y="475.92" style="fill:#D7E9FF;" width="359.94" height="31.994"/>
</g>
<path style="fill:#5C9EFF;" d="M67.987,4c-4.413,0-7.999,3.582-7.999,7.999v47.992c0,4.417,3.585,7.999,7.999,7.999
	c4.421,0,7.999-3.582,7.999-7.999V11.998C75.986,7.581,72.409,4,67.987,4z"/>
<path style="fill:#2287FF;" d="M67.987,59.99c-4.413,0-7.999-3.581-7.999-7.998v7.998c0,4.417,3.585,7.999,7.999,7.999
	c4.421,0,7.999-3.582,7.999-7.999v-7.998C75.986,56.409,72.409,59.99,67.987,59.99z"/>
<g>
	<path style="fill:#5C9EFF;" d="M123.979,4c-4.413,0-7.999,3.582-7.999,7.999v47.992c0,4.417,3.586,7.999,7.999,7.999
		c4.421,0,7.999-3.582,7.999-7.999V11.998C131.978,7.581,128.399,4,123.979,4z"/>
	<path style="fill:#5C9EFF;" d="M179.97,4c-4.414,0-7.999,3.582-7.999,7.999v47.992c0,4.417,3.585,7.999,7.999,7.999
		c4.421,0,7.999-3.582,7.999-7.999V11.998C187.968,7.581,184.391,4,179.97,4z"/>
	<path style="fill:#5C9EFF;" d="M235.96,4c-4.414,0-7.999,3.582-7.999,7.999v47.992c0,4.417,3.585,7.999,7.999,7.999
		c4.421,0,7.999-3.582,7.999-7.999V11.998C243.959,7.581,240.382,4,235.96,4z"/>
	<path style="fill:#5C9EFF;" d="M291.951,4c-4.413,0-7.998,3.582-7.998,7.999v47.992c0,4.417,3.585,7.999,7.998,7.999
		c4.422,0,7.999-3.582,7.999-7.999V11.998C299.95,7.581,296.373,4,291.951,4z"/>
	<path style="fill:#5C9EFF;" d="M347.942,4c-4.413,0-7.999,3.582-7.999,7.999v47.992c0,4.417,3.586,7.999,7.999,7.999
		c4.421,0,7.999-3.582,7.999-7.999V11.998C355.941,7.581,352.363,4,347.942,4z"/>
</g>
<g>
	<path style="fill:#2287FF;" d="M123.979,59.99c-4.413,0-7.999-3.581-7.999-7.998v7.998c0,4.417,3.586,7.999,7.999,7.999
		c4.421,0,7.999-3.582,7.999-7.999v-7.998C131.978,56.409,128.399,59.99,123.979,59.99z"/>
	<path style="fill:#2287FF;" d="M179.97,59.99c-4.414,0-7.999-3.581-7.999-7.998v7.998c0,4.417,3.585,7.999,7.999,7.999
		c4.421,0,7.999-3.582,7.999-7.999v-7.998C187.968,56.409,184.391,59.99,179.97,59.99z"/>
	<path style="fill:#2287FF;" d="M235.96,59.99c-4.414,0-7.999-3.581-7.999-7.998v7.998c0,4.417,3.585,7.999,7.999,7.999
		c4.421,0,7.999-3.582,7.999-7.999v-7.998C243.959,56.409,240.382,59.99,235.96,59.99z"/>
	<path style="fill:#2287FF;" d="M291.951,59.99c-4.413,0-7.998-3.581-7.998-7.998v7.998c0,4.417,3.585,7.999,7.998,7.999
		c4.422,0,7.999-3.582,7.999-7.999v-7.998C299.95,56.409,296.373,59.99,291.951,59.99z"/>
	<path style="fill:#2287FF;" d="M347.942,59.99c-4.413,0-7.999-3.581-7.999-7.998v7.998c0,4.417,3.586,7.999,7.999,7.999
		c4.421,0,7.999-3.582,7.999-7.999v-7.998C355.941,56.409,352.363,59.99,347.942,59.99z"/>
</g>
<g>
	<path style="fill:#94C1FF;" d="M67.987,11.998c4.421,0,7.999,3.582,7.999,7.999v-7.999c0-4.417-3.578-7.999-7.999-7.999
		c-4.413,0-7.999,3.582-7.999,7.999v7.999C59.989,15.58,63.574,11.998,67.987,11.998z"/>
	<path style="fill:#94C1FF;" d="M123.979,11.998c4.421,0,7.999,3.582,7.999,7.999v-7.999c0-4.417-3.578-7.999-7.999-7.999
		c-4.413,0-7.999,3.582-7.999,7.999v7.999C115.98,15.58,119.565,11.998,123.979,11.998z"/>
	<path style="fill:#94C1FF;" d="M179.97,11.998c4.421,0,7.999,3.582,7.999,7.999v-7.999c0-4.417-3.578-7.999-7.999-7.999
		c-4.414,0-7.999,3.582-7.999,7.999v7.999C171.971,15.58,175.556,11.998,179.97,11.998z"/>
	<path style="fill:#94C1FF;" d="M235.96,11.998c4.421,0,7.999,3.582,7.999,7.999v-7.999c0-4.417-3.577-7.999-7.999-7.999
		c-4.414,0-7.999,3.582-7.999,7.999v7.999C227.962,15.58,231.547,11.998,235.96,11.998z"/>
	<path style="fill:#94C1FF;" d="M291.951,11.998c4.422,0,7.999,3.582,7.999,7.999v-7.999c0-4.417-3.577-7.999-7.999-7.999
		c-4.413,0-7.998,3.582-7.998,7.999v7.999C283.953,15.58,287.538,11.998,291.951,11.998z"/>
	<path style="fill:#94C1FF;" d="M347.942,11.998c4.421,0,7.999,3.582,7.999,7.999v-7.999c0-4.417-3.578-7.999-7.999-7.999
		c-4.413,0-7.999,3.582-7.999,7.999v7.999C339.943,15.58,343.529,11.998,347.942,11.998z"/>
</g>
<rect x="443.93" y="331.95" style="fill:#D7E9FF;" width="7.999" height="15.997"/>
<rect x="467.92" y="331.95" style="fill:#5C9EFF;" width="7.999" height="15.997"/>
<g>
	<path style="fill:#116FFF;" d="M387.936,479.923H27.994c-2.211,0-4-1.789-4-3.999V35.994c0-2.21,1.789-3.999,4-3.999H51.99
		c2.21,0,3.999,1.789,3.999,3.999c0,2.211-1.789,4-3.999,4H31.993v431.93h351.943V39.994h-19.997c-2.21,0-3.999-1.789-3.999-4
		c0-2.21,1.789-3.999,3.999-3.999h23.996c2.211,0,4,1.789,4,3.999v439.93C391.936,478.134,390.147,479.923,387.936,479.923z"/>
	<path style="fill:#116FFF;" d="M331.945,39.994h-23.996c-2.211,0-4-1.789-4-4c0-2.21,1.789-3.999,4-3.999h23.996
		c2.21,0,3.999,1.789,3.999,3.999C335.944,38.205,334.155,39.994,331.945,39.994z"/>
	<path style="fill:#116FFF;" d="M275.954,39.994h-23.996c-2.211,0-4-1.789-4-4c0-2.21,1.789-3.999,4-3.999h23.996
		c2.21,0,3.999,1.789,3.999,3.999C279.953,38.205,278.164,39.994,275.954,39.994z"/>
	<path style="fill:#116FFF;" d="M219.963,39.994h-23.996c-2.21,0-3.999-1.789-3.999-4c0-2.21,1.789-3.999,3.999-3.999h23.996
		c2.211,0,4,1.789,4,3.999C223.962,38.205,222.174,39.994,219.963,39.994z"/>
	<path style="fill:#116FFF;" d="M163.972,39.994h-23.996c-2.21,0-4-1.789-4-4c0-2.21,1.789-3.999,4-3.999h23.996
		c2.21,0,4,1.789,4,3.999C167.972,38.205,166.183,39.994,163.972,39.994z"/>
	<path style="fill:#116FFF;" d="M107.981,39.994H83.985c-2.211,0-4-1.789-4-4c0-2.21,1.789-3.999,4-3.999h23.996
		c2.21,0,3.999,1.789,3.999,3.999C111.98,38.205,110.191,39.994,107.981,39.994z"/>
	<path style="fill:#116FFF;" d="M387.936,495.92H27.994c-2.211,0-4-1.788-4-3.999c0-2.21,1.789-3.999,4-3.999h359.941
		c2.211,0,4,1.789,4,3.999C391.936,494.132,390.147,495.92,387.936,495.92z"/>
	<path style="fill:#116FFF;" d="M387.936,511.918H27.994c-2.211,0-4-1.789-4-4c0-2.21,1.789-3.999,4-3.999h359.941
		c2.211,0,4,1.789,4,3.999C391.936,510.129,390.147,511.918,387.936,511.918z"/>
	<path style="fill:#116FFF;" d="M67.987,71.988c-6.616,0-11.998-5.382-11.998-11.998V11.998C55.989,5.382,61.371,0,67.987,0
		c6.616,0,11.998,5.382,11.998,11.998V59.99C79.985,66.606,74.604,71.988,67.987,71.988z M67.987,7.999
		c-2.202,0-3.999,1.792-3.999,3.999V59.99c0,2.207,1.797,4,3.999,4c2.211,0,4-1.793,4-4V11.998
		C71.987,9.792,70.198,7.999,67.987,7.999z"/>
	<path style="fill:#116FFF;" d="M123.979,71.988c-6.616,0-11.998-5.382-11.998-11.998V11.998C111.981,5.382,117.363,0,123.979,0
		s11.998,5.382,11.998,11.998V59.99C135.977,66.606,130.595,71.988,123.979,71.988z M123.979,7.999
		c-2.203,0-3.999,1.792-3.999,3.999V59.99c0,2.207,1.796,4,3.999,4c2.211,0,4-1.793,4-4V11.998
		C127.978,9.792,126.189,7.999,123.979,7.999z"/>
	<path style="fill:#116FFF;" d="M179.97,71.988c-6.616,0-11.998-5.382-11.998-11.998V11.998C167.972,5.382,173.354,0,179.97,0
		s11.998,5.382,11.998,11.998V59.99C191.968,66.606,186.586,71.988,179.97,71.988z M179.97,7.999c-2.203,0-4,1.792-4,3.999V59.99
		c0,2.207,1.796,4,4,4c2.21,0,3.999-1.793,3.999-4V11.998C183.969,9.792,182.18,7.999,179.97,7.999z"/>
	<path style="fill:#116FFF;" d="M235.96,71.988c-6.616,0-11.998-5.382-11.998-11.998V11.998C223.962,5.382,229.344,0,235.96,0
		s11.998,5.382,11.998,11.998V59.99C247.959,66.606,242.577,71.988,235.96,71.988z M235.96,7.999c-2.203,0-4,1.792-4,3.999V59.99
		c0,2.207,1.797,4,4,4c2.21,0,4-1.793,4-4V11.998C239.96,9.792,238.171,7.999,235.96,7.999z"/>
	<path style="fill:#116FFF;" d="M291.951,71.988c-6.615,0-11.998-5.382-11.998-11.998V11.998C279.953,5.382,285.336,0,291.951,0
		c6.616,0,11.998,5.382,11.998,11.998V59.99C303.949,66.606,298.567,71.988,291.951,71.988z M291.951,7.999
		c-2.202,0-3.999,1.792-3.999,3.999V59.99c0,2.207,1.797,4,3.999,4c2.211,0,4-1.793,4-4V11.998
		C295.951,9.792,294.162,7.999,291.951,7.999z"/>
	<path style="fill:#116FFF;" d="M347.942,71.988c-6.616,0-11.998-5.382-11.998-11.998V11.998C335.944,5.382,341.326,0,347.942,0
		s11.998,5.382,11.998,11.998V59.99C359.94,66.606,354.559,71.988,347.942,71.988z M347.942,7.999c-2.202,0-3.999,1.792-3.999,3.999
		V59.99c0,2.207,1.797,4,3.999,4c2.211,0,3.999-1.793,3.999-4V11.998C351.941,9.792,350.153,7.999,347.942,7.999z"/>
	<path style="fill:#116FFF;" d="M459.932,455.927c-1.296,0-2.562-0.625-3.335-1.781L440.6,430.15
		c-0.68-1.03-0.852-2.312-0.461-3.483l7.787-23.379v-7.351c0-2.211,1.789-3.999,4-3.999s3.999,1.788,3.999,3.999v7.999
		c0,0.43-0.07,0.859-0.203,1.266l-7.382,22.137l14.912,22.371c1.227,1.844,0.734,4.319-1.109,5.546
		C461.463,455.708,460.689,455.927,459.932,455.927z"/>
	<path style="fill:#116FFF;" d="M459.924,455.927c-0.765,0-1.53-0.219-2.218-0.672c-1.836-1.227-2.336-3.702-1.109-5.546
		l14.912-22.371l-7.374-22.137c-0.141-0.406-0.211-0.836-0.211-1.266v-7.999c0-2.211,1.789-3.999,3.999-3.999
		c2.211,0,4,1.788,4,3.999v7.351l7.795,23.379c0.391,1.172,0.219,2.453-0.468,3.483l-15.998,23.996
		C462.486,455.302,461.213,455.927,459.924,455.927z"/>
	<path style="fill:#116FFF;" d="M475.922,335.946h-31.995c-2.21,0-3.999-1.789-3.999-3.999c0-2.211,1.789-4,3.999-4h31.995
		c2.211,0,3.999,1.789,3.999,4C479.921,334.157,478.133,335.946,475.922,335.946z"/>
	<path style="fill:#116FFF;" d="M443.927,335.946c-2.132,0-3.905-1.688-3.991-3.843l-7.999-199.972
		c-0.094-2.207,1.625-4.07,3.835-4.156c2.188-0.277,4.062,1.629,4.156,3.835l7.998,199.98c0.086,2.202-1.632,4.062-3.835,4.155
		C444.036,335.946,443.981,335.946,443.927,335.946z"/>
	<path style="fill:#116FFF;" d="M475.93,335.946c-0.055,0-0.109,0-0.164,0c-2.211-0.094-3.929-1.953-3.835-4.155l7.998-199.98
		c0.086-2.207,1.938-4.109,4.156-3.835c2.202,0.086,3.921,1.949,3.835,4.156l-7.999,199.972
		C479.835,334.259,478.063,335.946,475.93,335.946z"/>
	<path style="fill:#116FFF;" d="M483.921,135.971c-2.211,0-4-1.789-4-4c0-18.575-6.726-27.996-19.997-27.996
		c-13.263,0-19.996,9.42-19.996,27.996c0,2.21-1.789,4-4,4c-2.21,0-3.999-1.789-3.999-4c0-22.875,10.21-35.994,27.995-35.994
		c17.795,0,27.996,13.119,27.996,35.994C487.92,134.182,486.131,135.971,483.921,135.971z"/>
	<path style="fill:#116FFF;" d="M467.923,103.976h-15.997c-2.211,0-4-1.789-4-3.999c0-2.211,1.789-4,4-4h15.997c2.211,0,4,1.789,4,4
		C471.923,102.187,470.134,103.976,467.923,103.976z"/>
	<path style="fill:#116FFF;" d="M459.924,239.954c-2.21,0-3.999-1.789-3.999-4v-119.98c0-2.21,1.789-3.999,3.999-3.999
		c2.211,0,4,1.789,4,3.999v119.98C463.924,238.165,462.135,239.954,459.924,239.954z"/>
	<path style="fill:#116FFF;" d="M475.922,351.943h-31.995c-2.21,0-3.999-1.789-3.999-3.999c0-2.211,1.789-3.999,3.999-3.999h31.995
		c2.211,0,3.999,1.788,3.999,3.999C479.921,350.154,478.133,351.943,475.922,351.943z"/>
	<path style="fill:#116FFF;" d="M475.922,351.943c-2.211,0-3.999-1.789-3.999-3.999v-15.997c0-2.211,1.788-4,3.999-4
		s3.999,1.789,3.999,4v15.997C479.921,350.154,478.133,351.943,475.922,351.943z"/>
	<path style="fill:#116FFF;" d="M443.927,351.943c-2.21,0-3.999-1.789-3.999-3.999v-15.997c0-2.211,1.789-4,3.999-4
		c2.211,0,3.999,1.789,3.999,4v15.997C447.926,350.154,446.138,351.943,443.927,351.943z"/>
	<path style="fill:#116FFF;" d="M475.922,399.936h-31.995c-2.21,0-3.999-1.789-3.999-3.999c0-2.211,1.789-3.999,3.999-3.999h31.995
		c2.211,0,3.999,1.788,3.999,3.999C479.921,398.147,478.133,399.936,475.922,399.936z"/>
	<path style="fill:#116FFF;" d="M475.922,399.936c-2.211,0-3.999-1.789-3.999-3.999v-47.992c0-2.211,1.788-3.999,3.999-3.999
		s3.999,1.788,3.999,3.999v47.992C479.921,398.147,478.133,399.936,475.922,399.936z"/>
	<path style="fill:#116FFF;" d="M443.927,399.936c-2.21,0-3.999-1.789-3.999-3.999v-47.992c0-2.211,1.789-3.999,3.999-3.999
		c2.211,0,3.999,1.788,3.999,3.999v47.992C447.926,398.147,446.138,399.936,443.927,399.936z"/>
	<path style="fill:#116FFF;" d="M99.982,183.971c-1.023,0-2.047-0.391-2.828-1.172l-15.998-15.997c-1.562-1.562-1.562-4.093,0-5.655
		s4.093-1.562,5.655,0l15.998,15.997c1.562,1.562,1.562,4.093,0,5.655C102.029,183.58,101.006,183.971,99.982,183.971z"/>
	<path style="fill:#116FFF;" d="M99.982,183.971c-1.023,0-2.047-0.391-2.828-1.172c-1.562-1.562-1.562-4.093,0-5.655l31.995-31.995
		c1.562-1.562,4.093-1.562,5.655,0s1.562,4.093,0,5.655l-31.995,31.995C102.029,183.58,101.006,183.971,99.982,183.971z"/>
	<path style="fill:#116FFF;" d="M99.982,287.954c-1.023,0-2.047-0.391-2.828-1.172l-15.998-15.997c-1.562-1.562-1.562-4.094,0-5.656
		s4.093-1.562,5.655,0l15.998,15.998c1.562,1.562,1.562,4.093,0,5.655C102.029,287.563,101.006,287.954,99.982,287.954z"/>
	<path style="fill:#116FFF;" d="M99.982,287.954c-1.023,0-2.047-0.391-2.828-1.172c-1.562-1.562-1.562-4.093,0-5.655l31.995-31.987
		c1.562-1.562,4.093-1.562,5.655,0s1.562,4.093,0,5.655l-31.995,31.987C102.029,287.563,101.006,287.954,99.982,287.954z"/>
	<path style="fill:#116FFF;" d="M331.945,143.977H171.971c-2.21,0-3.999-1.789-3.999-4c0-2.21,1.789-3.999,3.999-3.999h159.975
		c2.21,0,3.999,1.789,3.999,3.999C335.944,142.188,334.155,143.977,331.945,143.977z"/>
	<path style="fill:#116FFF;" d="M331.945,167.973H171.971c-2.21,0-3.999-1.789-3.999-4c0-2.21,1.789-3.999,3.999-3.999h159.975
		c2.21,0,3.999,1.789,3.999,3.999C335.944,166.185,334.155,167.973,331.945,167.973z"/>
	<path style="fill:#116FFF;" d="M251.958,191.969h-79.987c-2.21,0-3.999-1.789-3.999-4c0-2.21,1.789-3.999,3.999-3.999h79.987
		c2.21,0,3.999,1.789,3.999,3.999C255.957,190.181,254.168,191.969,251.958,191.969z"/>
	<path style="fill:#116FFF;" d="M331.945,247.96H171.971c-2.21,0-3.999-1.788-3.999-3.999s1.789-3.999,3.999-3.999h159.975
		c2.21,0,3.999,1.788,3.999,3.999S334.155,247.96,331.945,247.96z"/>
	<path style="fill:#116FFF;" d="M331.945,271.957H171.971c-2.21,0-3.999-1.789-3.999-4s1.789-3.999,3.999-3.999h159.975
		c2.21,0,3.999,1.788,3.999,3.999S334.155,271.957,331.945,271.957z"/>
	<path style="fill:#116FFF;" d="M251.958,295.953h-79.987c-2.21,0-3.999-1.789-3.999-4s1.789-3.999,3.999-3.999h79.987
		c2.21,0,3.999,1.788,3.999,3.999S254.168,295.953,251.958,295.953z"/>
	<path style="fill:#116FFF;" d="M99.982,391.938c-1.023,0-2.047-0.391-2.828-1.172l-15.998-15.998c-1.562-1.562-1.562-4.093,0-5.655
		s4.093-1.562,5.655,0l15.998,15.998c1.562,1.562,1.562,4.093,0,5.655C102.029,391.547,101.006,391.938,99.982,391.938z"/>
	<path style="fill:#116FFF;" d="M99.982,391.938c-1.023,0-2.047-0.391-2.828-1.172c-1.562-1.562-1.562-4.094,0-5.655l31.995-31.995
		c1.562-1.562,4.093-1.562,5.655,0s1.562,4.093,0,5.655l-31.995,31.995C102.029,391.547,101.006,391.938,99.982,391.938z"/>
	<path style="fill:#116FFF;" d="M331.945,351.943H171.971c-2.21,0-3.999-1.789-3.999-3.999c0-2.211,1.789-3.999,3.999-3.999h159.975
		c2.21,0,3.999,1.788,3.999,3.999C335.944,350.154,334.155,351.943,331.945,351.943z"/>
	<path style="fill:#116FFF;" d="M331.945,375.939H171.971c-2.21,0-3.999-1.789-3.999-3.999c0-2.211,1.789-3.999,3.999-3.999h159.975
		c2.21,0,3.999,1.788,3.999,3.999C335.944,374.15,334.155,375.939,331.945,375.939z"/>
	<path style="fill:#116FFF;" d="M251.958,399.936h-79.987c-2.21,0-3.999-1.789-3.999-3.999c0-2.211,1.789-3.999,3.999-3.999h79.987
		c2.21,0,3.999,1.788,3.999,3.999C255.957,398.147,254.168,399.936,251.958,399.936z"/>
</g>
<g>
</g>
<g>
</g>
<g>
</g>
<g>
</g>
<g>
</g>
<g>
</g>
<g>
</g>
<g>
</g>
<g>
</g>
<g>
</g>
<g>
</g>
<g>
</g>
<g>
</g>
<g>
</g>
<g>
</g>
</svg>
