<svg id="Capa_1" enable-background="new 0 0 512 512" height="512" viewBox="0 0 512 512" width="512" xmlns="http://www.w3.org/2000/svg"><g><path d="m149.854 199.097h-129.041c-11.495 0-20.813-9.318-20.813-20.813v-108.228c0-11.495 9.318-20.813 20.813-20.813h129.041z" fill="#90d8f9"/><path d="m491.187 49.243h-341.333v149.854h230.036c3.243 0 6.296 1.527 8.241 4.121l24.832 33.11c1.648 2.198 4.945 2.198 6.593 0l24.832-33.11c1.946-2.594 4.999-4.121 8.241-4.121h38.556c11.495 0 20.813-9.318 20.813-20.813v-108.228c.002-11.494-9.316-20.813-20.811-20.813z" fill="#ecf4ff"/><path d="m491.187 49.243h-28.098c11.495 0 20.813 9.318 20.813 20.813v108.228c0 11.495-9.318 20.813-20.813 20.813h28.098c11.495 0 20.813-9.318 20.813-20.813v-108.228c0-11.494-9.318-20.813-20.813-20.813z" fill="#ddeafb"/><g><path d="m362.146 423.878h129.041c11.495 0 20.813-9.318 20.813-20.813v-108.228c0-11.495-9.318-20.813-20.813-20.813h-129.041z" fill="#df75a5"/><path d="m491.187 274.024h-28.098c11.495 0 20.813 9.318 20.813 20.813v108.228c0 11.495-9.318 20.813-20.813 20.813h28.098c11.495 0 20.813-9.318 20.813-20.813v-108.228c0-11.495-9.318-20.813-20.813-20.813z" fill="#dd5790"/><path d="m20.813 274.024h341.333v149.854h-230.036c-3.243 0-6.296 1.527-8.241 4.121l-24.832 33.11c-1.648 2.198-4.945 2.198-6.593 0l-24.832-33.11c-1.946-2.594-4.999-4.121-8.241-4.121h-38.558c-11.495 0-20.813-9.319-20.813-20.813v-108.228c0-11.495 9.318-20.813 20.813-20.813z" fill="#ecf4ff"/></g><g><g><g><path d="m445.398 131.897h-257.04c-4.268 0-7.726-3.459-7.726-7.726s3.459-7.726 7.726-7.726h257.04c4.268 0 7.726 3.459 7.726 7.726s-3.458 7.726-7.726 7.726z" fill="#78d090"/></g><g><path d="m473.496 98.596h-188.358c-4.268 0-7.726-3.459-7.726-7.726 0-4.268 3.459-7.726 7.726-7.726h188.358c4.268 0 7.726 3.459 7.726 7.726s-3.458 7.726-7.726 7.726z" fill="#78d090"/></g><g><path d="m248.715 98.596h-60.357c-4.268 0-7.726-3.459-7.726-7.726 0-4.268 3.459-7.726 7.726-7.726h60.357c4.268 0 7.726 3.459 7.726 7.726.001 4.267-3.458 7.726-7.726 7.726z" fill="#78d090"/></g></g><g><g><path d="m411.057 165.197h-155.057c-4.268 0-7.726-3.459-7.726-7.726s3.459-7.726 7.726-7.726h155.057c4.268 0 7.726 3.459 7.726 7.726s-3.458 7.726-7.726 7.726z" fill="#78d090"/></g><g><path d="m219.577 165.197h-31.219c-4.268 0-7.726-3.459-7.726-7.726s3.459-7.726 7.726-7.726h31.219c4.268 0 7.726 3.459 7.726 7.726s-3.458 7.726-7.726 7.726z" fill="#78d090"/></g></g></g><g fill="#ecf4ff"><path d="m114.95 152.769c5.764-8.075 9.169-17.943 9.169-28.599 0-27.213-22.139-49.352-49.352-49.352s-49.354 22.139-49.354 49.352 22.14 49.352 49.353 49.352c10.992 0 21.154-3.615 29.366-9.715l7.117 7.117c1.509 1.508 3.487 2.263 5.464 2.263s3.955-.755 5.464-2.263c3.017-3.018 3.017-7.909 0-10.928zm-40.183 5.301c-18.693 0-33.9-15.207-33.9-33.899s15.207-33.899 33.9-33.899c18.692 0 33.899 15.207 33.899 33.899 0 6.383-1.775 12.357-4.855 17.46l-8.267-8.267c-3.018-3.016-7.909-3.016-10.928 0-3.017 3.018-3.017 7.909 0 10.928l8.415 8.415c-5.275 3.388-11.542 5.363-18.264 5.363z"/><path d="m477.166 387.848-30.977-82.082c-.026-.07-.053-.14-.082-.209-1.488-3.621-4.977-5.958-8.89-5.958-.003 0-.005 0-.008 0-3.917.003-7.406 2.347-8.889 5.973-.024.058-.047.117-.069.175l-31.262 82.079c-1.519 3.988.483 8.452 4.47 9.971s8.452-.482 9.971-4.47l5.891-15.466h39.562l5.828 15.444c1.167 3.094 4.108 5 7.229 5 .906 0 1.829-.161 2.727-.5 3.991-1.506 6.006-5.964 4.499-9.957zm-53.961-25.439 13.987-36.722 13.858 36.722z"/></g><g><g><g><path d="m323.642 356.677h-257.04c-4.268 0-7.726-3.459-7.726-7.726s3.459-7.726 7.726-7.726h257.04c4.268 0 7.726 3.459 7.726 7.726s-3.459 7.726-7.726 7.726z" fill="#78d090"/></g><g><path d="m226.862 323.377h-188.358c-4.268 0-7.726-3.459-7.726-7.726s3.459-7.726 7.726-7.726h188.358c4.268 0 7.726 3.459 7.726 7.726s-3.458 7.726-7.726 7.726z" fill="#78d090"/></g><g><path d="m323.642 323.377h-60.357c-4.268 0-7.726-3.459-7.726-7.726s3.459-7.726 7.726-7.726h60.357c4.268 0 7.726 3.459 7.726 7.726s-3.459 7.726-7.726 7.726z" fill="#78d090"/></g></g><g><g><path d="m256 389.978h-155.057c-4.268 0-7.726-3.459-7.726-7.726s3.459-7.726 7.726-7.726h155.057c4.268 0 7.726 3.459 7.726 7.726s-3.458 7.726-7.726 7.726z" fill="#78d090"/></g><g><path d="m323.642 389.978h-31.219c-4.268 0-7.726-3.459-7.726-7.726s3.459-7.726 7.726-7.726h31.219c4.268 0 7.726 3.459 7.726 7.726s-3.459 7.726-7.726 7.726z" fill="#78d090"/></g></g></g></g></svg>